<?xml version="1.0" standalone="no"?>
<!DOCTYPE svg PUBLIC "-//W3C//DTD SVG 20010904//EN"
 "http://www.w3.org/TR/2001/REC-SVG-20010904/DTD/svg10.dtd">
<svg version="1.0" xmlns="http://www.w3.org/2000/svg"
 width="594.000000pt" height="594.000000pt" viewBox="0 0 594.000000 594.000000"
 preserveAspectRatio="xMidYMid meet">
<metadata>
Created by potrace 1.11, written by Peter Selinger 2001-2013
</metadata>
<g transform="translate(0.000000,594.000000) scale(0.100000,-0.100000)"
fill="#000000" stroke="none">
<path d="M2380 5743 c-58 -75 -151 -198 -206 -274 l-102 -138 -41 30 c-136
100 -508 308 -598 334 -18 5 -31 -9 -95 -112 -354 -561 -575 -1176 -629 -1748
-16 -176 -7 -504 20 -660 90 -534 324 -980 674 -1285 299 -262 732 -452 1162
-510 44 -6 90 -13 103 -16 l22 -4 0 -497 0 -497 -152 150 c-243 239 -510 464
-843 709 -185 136 -586 405 -604 405 -14 0 -11 -80 15 -370 37 -418 132 -906
232 -1200 l19 -55 1628 0 1628 0 14 40 c128 363 234 965 259 1469 7 134 7 138
-12 128 -10 -6 -100 -64 -199 -129 -493 -326 -910 -658 -1257 -1002 l-138
-136 0 496 0 495 93 13 c121 17 368 80 493 126 134 49 360 161 469 233 493
322 800 809 906 1437 27 156 36 484 20 660 -54 572 -275 1187 -629 1748 -85
136 -62 131 -229 52 -133 -63 -270 -142 -416 -241 l-107 -73 -62 82 c-132 175
-400 478 -421 476 -7 0 -101 -103 -211 -229 l-199 -229 -97 92 c-54 51 -163
154 -242 230 -80 75 -149 137 -154 137 -5 0 -56 -62 -114 -137z"/>
</g>
</svg>
